<svg xmlns="http://www.w3.org/2000/svg" viewBox="0 0 900 900" role="img" aria-label="Illustration einer Bowl">
  <defs>
    <linearGradient id="g1" x1="0" x2="1" y1="0" y2="1">
      <stop offset="0%" stop-color="#141414"/>
      <stop offset="100%" stop-color="#0a0a0a"/>
    </linearGradient>
  </defs>
  <rect width="900" height="900" rx="84" fill="url(#g1)"/>
  <circle cx="650" cy="180" r="118" fill="rgba(255,212,58,0.14)"/>
  <circle cx="180" cy="660" r="140" fill="rgba(229,57,53,0.14)"/>
  <path d="M212 410c0 145 84 252 238 252s238-107 238-252" fill="#2b1a11"/>
  <path d="M200 398h500c0 108-99 195-250 195S200 506 200 398Z" fill="#ff7a18"/>
  <path d="M230 377c24-72 107-126 208-126s184 54 208 126" fill="#ffd43a"/>
  <path d="M272 364c18-26 48-45 85-58" fill="none" stroke="#fff7de" stroke-width="18" stroke-linecap="round"/>
  <circle cx="348" cy="448" r="30" fill="#e53935"/>
  <circle cx="456" cy="425" r="30" fill="#84d47a"/>
  <circle cx="552" cy="455" r="30" fill="#fff1d3"/>
  <circle cx="384" cy="524" r="26" fill="#f0c27b"/>
  <circle cx="508" cy="523" r="26" fill="#3fb6a8"/>
  <path d="M260 620h380" stroke="#fff7de" stroke-width="16" stroke-linecap="round" opacity="0.6"/>
</svg>
