<svg xmlns="http://www.w3.org/2000/svg" viewBox="0 0 900 900" role="img" aria-label="Illustration eines Signature Burgers">
  <defs>
    <linearGradient id="a" x1="0" x2="1" y1="0" y2="1">
      <stop offset="0%" stop-color="#ffd43a"/>
      <stop offset="55%" stop-color="#ff7a18"/>
      <stop offset="100%" stop-color="#e53935"/>
    </linearGradient>
    <linearGradient id="b" x1="0" x2="1" y1="0" y2="1">
      <stop offset="0%" stop-color="#2a1a11"/>
      <stop offset="100%" stop-color="#7b3c18"/>
    </linearGradient>
  </defs>
  <rect width="900" height="900" rx="84" fill="#111111"/>
  <circle cx="680" cy="170" r="124" fill="rgba(255,122,24,0.18)"/>
  <circle cx="190" cy="690" r="150" fill="rgba(229,57,53,0.14)"/>
  <path d="M204 315c0-102 112-180 246-180s246 78 246 180" fill="url(#a)"/>
  <path d="M160 372c0-35 31-64 70-64h440c39 0 70 29 70 64 0 31-27 58-61 63H221c-34-5-61-32-61-63Z" fill="#f2bf3a"/>
  <path d="M180 430c36 0 68 18 96 18s51-18 78-18 52 18 78 18 51-18 78-18 52 18 78 18 60-18 96-18c40 0 73 29 73 66 0 39-31 71-70 71H177c-39 0-70-32-70-71 0-37 33-66 73-66Z" fill="url(#b)"/>
  <path d="M145 560c0-28 23-50 51-50h508c28 0 51 22 51 50 0 22-17 40-40 45H185c-23-5-40-23-40-45Z" fill="#8c4a1f"/>
  <path d="M178 577h544c20 0 36 16 36 36s-16 36-36 36H178c-20 0-36-16-36-36s16-36 36-36Z" fill="#f1c5a1"/>
  <path d="M245 252c32-36 81-56 135-56h140c54 0 103 20 135 56" fill="none" stroke="#fff8e0" stroke-width="18" stroke-linecap="round" opacity="0.42"/>
  <circle cx="317" cy="216" r="14" fill="#fff8e0"/>
  <circle cx="430" cy="189" r="14" fill="#fff8e0"/>
  <circle cx="560" cy="222" r="14" fill="#fff8e0"/>
</svg>
